# xmcd
#
# Track frame offsets:
#	150
#	13435
#	25839
#	37266
#	49680
#	62213
#	76443
#	88819
#	103518
#	115241
#	128683
#	142960
#	160752
#	178431
#	193641
#	206042
#	216239
#	229911
#	251584
#	268918
#
# Disc length: 3843 seconds
#
# Revision: 3
# Processed by: cddbd v1.5.2PL0 Copyright (c) Steve Scherf et al.
# Submitted via: audiograbber 1.83.01
#
DISCID=2f0f0114
DTITLE=Various Artist - Indigo Blues Collection 5
DYEAR=2000
DGENRE=Blues
TTITLE0=Gus Cannon - Walk Right In
TTITLE1=Memphis Minnie - You Caught Me Wrong Again
TTITLE2=Tampa Red with Big Maceo - Kid Man Blues
TTITLE3=Tampa Red with Big Maceo - Gin Head Woman
TTITLE4=Sonny Boy Williamson - Sonny Boy's Jump
TTITLE5=John Lee Hooker - Boogie Chillen
TTITLE6=Eddie Boyd - I Had To Let Her Go
TTITLE7=Mahalia Jackson - I'm Going To Tell Her To God
TTITLE8=Sister Rosetta Tharpe - Didn't It Rain
TTITLE9=Roy Brown - Good Rockin' Tonight
TTITLE10=Otis Grand and The Dance Kings - Let's Party
TTITLE11=The Nightporters - Baby Please
TTITLE12=Mick Abrahams - Leaving Home Blues
TTITLE13=Duster Bennett - Blue River Rising
TTITLE14=Brunning Sunflower Blues Band - I Wish You Would
TTITLE15=Paul Lamb and The Blues Burglars - Don't Count Me Out
TTITLE16=Johnny Whitehill - Bone Picking
TTITLE17=Alan Price and The Electric Blues Company - Boom Boom Boom
TTITLE18=Jerry Portnoy - Home Run Hitter
TTITLE19=Ruby Turner - Suspicious Again
EXTD=
EXTT0=
EXTT1=
EXTT2=
EXTT3=
EXTT4=
EXTT5=
EXTT6=
EXTT7=
EXTT8=
EXTT9=
EXTT10=
EXTT11=
EXTT12=
EXTT13=
EXTT14=
EXTT15=
EXTT16=
EXTT17=
EXTT18=
EXTT19=
PLAYORDER=
